<svg xmlns="http://www.w3.org/2000/svg" width="800" height="800" viewBox="0 0 800 800">
<defs>
<linearGradient id="bg_dried-organic-red-pine-mushroom" x1="0%" y1="0%" x2="100%" y2="100%">
<stop offset="0%" stop-color="#f5f7fa"/>
<stop offset="100%" stop-color="#e8ecf0"/>
</linearGradient>
</defs>
<rect width="800" height="800" fill="url(#bg_dried-organic-red-pine-mushroom)"/>
<ellipse cx="400" cy="580" rx="180" ry="25" fill="#00000020"/>
<g transform="translate(400,400)">
<ellipse cx="-50" cy="-30" rx="80" ry="45" fill="#8b4513"/>
<ellipse cx="40" cy="-60" rx="75" ry="42" fill="#9b5523"/>
<ellipse cx="100" cy="-10" rx="70" ry="38" fill="#8b4513"/>
<ellipse cx="-20" cy="-90" rx="65" ry="35" fill="#9b5523"/>
<ellipse cx="60" cy="-110" rx="60" ry="32" fill="#8b4513"/>
<rect x="-70" y="0" width="28" height="80" rx="6" fill="#f0f2f4"/>
<rect x="-12" y="-20" width="26" height="90" rx="6" fill="#e8eaec"/>
<rect x="28" y="-35" width="28" height="95" rx="6" fill="#f0f2f4"/>
<rect x="68" y="-15" width="26" height="78" rx="6" fill="#e8eaec"/>
<rect x="100" cy="5" width="22" height="65" rx="6" fill="#f0f2f4"/>
</g>
<circle cx="680" cy="100" r="40" fill="#ca8a04"/>
<text x="680" y="95" font-family="Arial" font-size="12" font-weight="bold" fill="#fff" text-anchor="middle">ORGANIC</text>
<text x="680" y="112" font-family="Arial" font-size="10" fill="#fff" text-anchor="middle">DRIED</text>
<rect x="80" y="680" width="640" height="60" rx="6" fill="#ffffff" opacity="0.9"/>
<text x="400" y="705" font-family="Arial" font-size="22" font-weight="bold" fill="#1a3c2d" text-anchor="middle">Dried Organic Red Pine</text>
<text x="400" y="725" font-family="Arial" font-size="13" fill="#6b5f4e" text-anchor="middle">有机干红松茸</text>
</svg>
